<svg width="320" height="620" viewBox="0 0 320 620" xmlns="http://www.w3.org/2000/svg" font-family="sans-serif">
  <!-- Phone frame -->
  <rect width="320" height="620" rx="36" ry="36" fill="#f2f2f2" stroke="#d0d0d0" stroke-width="1.5"/>

  <!-- Status bar -->
  <rect x="0" y="0" width="320" height="36" rx="36" ry="36" fill="#f2f2f2"/>
  <rect x="0" y="18" width="320" height="18" fill="#f2f2f2"/>
  <!-- Signal / wifi / battery icons -->
  <text x="240" y="24" font-size="11" fill="#333">▐▐▐ ▲ ▬</text>

  <!-- Content area -->
  <rect x="0" y="36" width="320" height="548" fill="white"/>
  <rect x="0" y="568" width="320" height="52" rx="36" ry="36" fill="white"/>
  <rect x="0" y="568" width="320" height="26" fill="white"/>

  <!-- Title -->
  <text x="20" y="75" font-size="20" font-weight="bold" fill="#111">GitHub</text>

  <!-- Input field -->
  <rect x="16" y="90" width="288" height="48" rx="8" fill="white" stroke="#7B2FBE" stroke-width="2"/>
  <text x="28" y="120" font-size="15" fill="#aaa">Nome do usuário</text>

  <!-- Confirm button -->
  <rect x="16" y="152" width="288" height="48" rx="10" fill="#7B2FBE"/>
  <text x="160" y="182" font-size="16" font-weight="bold" fill="white" text-anchor="middle">Confirmar</text>

  <!-- Results label -->
  <text x="16" y="222" font-size="13" fill="#555">Resultados:</text>

  <!-- Repository cards -->
  <!-- Card 1 -->
  <rect x="10" y="232" width="300" height="46" rx="10" fill="#f0f0f0"/>
  <text x="22" y="261" font-size="14" fill="#222">Nome do repositório</text>
  <g transform="translate(278, 248)">
    <path d="M12,2 C6.48,2 2,6.48 2,12 C2,16.42 4.87,20.17 8.84,21.5 C9.34,21.58 9.5,21.27 9.5,21 C9.5,20.77 9.5,20.14 9.5,19.31 C6.73,19.91 6.14,17.97 6.14,17.97 C5.68,16.81 5.03,16.5 5.03,16.5 C4.12,15.88 5.1,15.9 5.1,15.9 C6.1,15.97 6.63,16.93 6.63,16.93 C7.5,18.45 8.97,18 9.54,17.76 C9.63,17.11 9.89,16.67 10.17,16.42 C7.95,16.17 5.62,15.31 5.62,11.5 C5.62,10.39 6.01,9.48 6.65,8.77 C6.55,8.52 6.2,7.5 6.75,6.15 C6.75,6.15 7.59,5.88 9.5,7.17 C10.29,6.95 11.15,6.84 12,6.84 C12.85,6.84 13.71,6.95 14.5,7.17 C16.41,5.88 17.25,6.15 17.25,6.15 C17.8,7.5 17.45,8.52 17.35,8.77 C17.99,9.48 18.38,10.39 18.38,11.5 C18.38,15.32 16.04,16.16 13.81,16.41 C14.17,16.72 14.5,17.33 14.5,18.26 C14.5,19.6 14.5,20.68 14.5,21 C14.5,21.27 14.66,21.59 15.17,21.5 C19.14,20.16 22,16.42 22,12 C22,6.48 17.52,2 12,2 Z" fill="#7B2FBE" transform="scale(0.85) translate(-2,-2)"/>
  </g>

  <!-- Card 2 -->
  <rect x="10" y="284" width="300" height="46" rx="10" fill="#f0f0f0"/>
  <text x="22" y="313" font-size="14" fill="#222">Nome do repositório</text>
  <g transform="translate(278, 300)">
    <path d="M12,2 C6.48,2 2,6.48 2,12 C2,16.42 4.87,20.17 8.84,21.5 C9.34,21.58 9.5,21.27 9.5,21 C9.5,20.77 9.5,20.14 9.5,19.31 C6.73,19.91 6.14,17.97 6.14,17.97 C5.68,16.81 5.03,16.5 5.03,16.5 C4.12,15.88 5.1,15.9 5.1,15.9 C6.1,15.97 6.63,16.93 6.63,16.93 C7.5,18.45 8.97,18 9.54,17.76 C9.63,17.11 9.89,16.67 10.17,16.42 C7.95,16.17 5.62,15.31 5.62,11.5 C5.62,10.39 6.01,9.48 6.65,8.77 C6.55,8.52 6.2,7.5 6.75,6.15 C6.75,6.15 7.59,5.88 9.5,7.17 C10.29,6.95 11.15,6.84 12,6.84 C12.85,6.84 13.71,6.95 14.5,7.17 C16.41,5.88 17.25,6.15 17.25,6.15 C17.8,7.5 17.45,8.52 17.35,8.77 C17.99,9.48 18.38,10.39 18.38,11.5 C18.38,15.32 16.04,16.16 13.81,16.41 C14.17,16.72 14.5,17.33 14.5,18.26 C14.5,19.6 14.5,20.68 14.5,21 C14.5,21.27 14.66,21.59 15.17,21.5 C19.14,20.16 22,16.42 22,12 C22,6.48 17.52,2 12,2 Z" fill="#7B2FBE" transform="scale(0.85) translate(-2,-2)"/>
  </g>

  <!-- Card 3 -->
  <rect x="10" y="336" width="300" height="46" rx="10" fill="#f0f0f0"/>
  <text x="22" y="365" font-size="14" fill="#222">Nome do repositório</text>
  <g transform="translate(278, 352)">
    <path d="M12,2 C6.48,2 2,6.48 2,12 C2,16.42 4.87,20.17 8.84,21.5 C9.34,21.58 9.5,21.27 9.5,21 C9.5,20.77 9.5,20.14 9.5,19.31 C6.73,19.91 6.14,17.97 6.14,17.97 C5.68,16.81 5.03,16.5 5.03,16.5 C4.12,15.88 5.1,15.9 5.1,15.9 C6.1,15.97 6.63,16.93 6.63,16.93 C7.5,18.45 8.97,18 9.54,17.76 C9.63,17.11 9.89,16.67 10.17,16.42 C7.95,16.17 5.62,15.31 5.62,11.5 C5.62,10.39 6.01,9.48 6.65,8.77 C6.55,8.52 6.2,7.5 6.75,6.15 C6.75,6.15 7.59,5.88 9.5,7.17 C10.29,6.95 11.15,6.84 12,6.84 C12.85,6.84 13.71,6.95 14.5,7.17 C16.41,5.88 17.25,6.15 17.25,6.15 C17.8,7.5 17.45,8.52 17.35,8.77 C17.99,9.48 18.38,10.39 18.38,11.5 C18.38,15.32 16.04,16.16 13.81,16.41 C14.17,16.72 14.5,17.33 14.5,18.26 C14.5,19.6 14.5,20.68 14.5,21 C14.5,21.27 14.66,21.59 15.17,21.5 C19.14,20.16 22,16.42 22,12 C22,6.48 17.52,2 12,2 Z" fill="#7B2FBE" transform="scale(0.85) translate(-2,-2)"/>
  </g>

  <!-- Card 4 -->
  <rect x="10" y="388" width="300" height="46" rx="10" fill="#f0f0f0"/>
  <text x="22" y="417" font-size="14" fill="#222">Nome do repositório</text>
  <g transform="translate(278, 404)">
    <path d="M12,2 C6.48,2 2,6.48 2,12 C2,16.42 4.87,20.17 8.84,21.5 C9.34,21.58 9.5,21.27 9.5,21 C9.5,20.77 9.5,20.14 9.5,19.31 C6.73,19.91 6.14,17.97 6.14,17.97 C5.68,16.81 5.03,16.5 5.03,16.5 C4.12,15.88 5.1,15.9 5.1,15.9 C6.1,15.97 6.63,16.93 6.63,16.93 C7.5,18.45 8.97,18 9.54,17.76 C9.63,17.11 9.89,16.67 10.17,16.42 C7.95,16.17 5.62,15.31 5.62,11.5 C5.62,10.39 6.01,9.48 6.65,8.77 C6.55,8.52 6.2,7.5 6.75,6.15 C6.75,6.15 7.59,5.88 9.5,7.17 C10.29,6.95 11.15,6.84 12,6.84 C12.85,6.84 13.71,6.95 14.5,7.17 C16.41,5.88 17.25,6.15 17.25,6.15 C17.8,7.5 17.45,8.52 17.35,8.77 C17.99,9.48 18.38,10.39 18.38,11.5 C18.38,15.32 16.04,16.16 13.81,16.41 C14.17,16.72 14.5,17.33 14.5,18.26 C14.5,19.6 14.5,20.68 14.5,21 C14.5,21.27 14.66,21.59 15.17,21.5 C19.14,20.16 22,16.42 22,12 C22,6.48 17.52,2 12,2 Z" fill="#7B2FBE" transform="scale(0.85) translate(-2,-2)"/>
  </g>

  <!-- Card 5 -->
  <rect x="10" y="440" width="300" height="46" rx="10" fill="#f0f0f0"/>
  <text x="22" y="469" font-size="14" fill="#222">Nome do repositório</text>
  <g transform="translate(278, 456)">
    <path d="M12,2 C6.48,2 2,6.48 2,12 C2,16.42 4.87,20.17 8.84,21.5 C9.34,21.58 9.5,21.27 9.5,21 C9.5,20.77 9.5,20.14 9.5,19.31 C6.73,19.91 6.14,17.97 6.14,17.97 C5.68,16.81 5.03,16.5 5.03,16.5 C4.12,15.88 5.1,15.9 5.1,15.9 C6.1,15.97 6.63,16.93 6.63,16.93 C7.5,18.45 8.97,18 9.54,17.76 C9.63,17.11 9.89,16.67 10.17,16.42 C7.95,16.17 5.62,15.31 5.62,11.5 C5.62,10.39 6.01,9.48 6.65,8.77 C6.55,8.52 6.2,7.5 6.75,6.15 C6.75,6.15 7.59,5.88 9.5,7.17 C10.29,6.95 11.15,6.84 12,6.84 C12.85,6.84 13.71,6.95 14.5,7.17 C16.41,5.88 17.25,6.15 17.25,6.15 C17.8,7.5 17.45,8.52 17.35,8.77 C17.99,9.48 18.38,10.39 18.38,11.5 C18.38,15.32 16.04,16.16 13.81,16.41 C14.17,16.72 14.5,17.33 14.5,18.26 C14.5,19.6 14.5,20.68 14.5,21 C14.5,21.27 14.66,21.59 15.17,21.5 C19.14,20.16 22,16.42 22,12 C22,6.48 17.52,2 12,2 Z" fill="#7B2FBE" transform="scale(0.85) translate(-2,-2)"/>
  </g>

  <!-- Card 6 -->
  <rect x="10" y="492" width="300" height="46" rx="10" fill="#f0f0f0"/>
  <text x="22" y="521" font-size="14" fill="#222">Nome do repositório</text>
  <g transform="translate(278, 508)">
    <path d="M12,2 C6.48,2 2,6.48 2,12 C2,16.42 4.87,20.17 8.84,21.5 C9.34,21.58 9.5,21.27 9.5,21 C9.5,20.77 9.5,20.14 9.5,19.31 C6.73,19.91 6.14,17.97 6.14,17.97 C5.68,16.81 5.03,16.5 5.03,16.5 C4.12,15.88 5.1,15.9 5.1,15.9 C6.1,15.97 6.63,16.93 6.63,16.93 C7.5,18.45 8.97,18 9.54,17.76 C9.63,17.11 9.89,16.67 10.17,16.42 C7.95,16.17 5.62,15.31 5.62,11.5 C5.62,10.39 6.01,9.48 6.65,8.77 C6.55,8.52 6.2,7.5 6.75,6.15 C6.75,6.15 7.59,5.88 9.5,7.17 C10.29,6.95 11.15,6.84 12,6.84 C12.85,6.84 13.71,6.95 14.5,7.17 C16.41,5.88 17.25,6.15 17.25,6.15 C17.8,7.5 17.45,8.52 17.35,8.77 C17.99,9.48 18.38,10.39 18.38,11.5 C18.38,15.32 16.04,16.16 13.81,16.41 C14.17,16.72 14.5,17.33 14.5,18.26 C14.5,19.6 14.5,20.68 14.5,21 C14.5,21.27 14.66,21.59 15.17,21.5 C19.14,20.16 22,16.42 22,12 C22,6.48 17.52,2 12,2 Z" fill="#7B2FBE" transform="scale(0.85) translate(-2,-2)"/>
  </g>

  <!-- Card 7 -->
  <rect x="10" y="544" width="300" height="46" rx="10" fill="#f0f0f0"/>
  <text x="22" y="573" font-size="14" fill="#222">Nome do repositório</text>
  <g transform="translate(278, 560)">
    <path d="M12,2 C6.48,2 2,6.48 2,12 C2,16.42 4.87,20.17 8.84,21.5 C9.34,21.58 9.5,21.27 9.5,21 C9.5,20.77 9.5,20.14 9.5,19.31 C6.73,19.91 6.14,17.97 6.14,17.97 C5.68,16.81 5.03,16.5 5.03,16.5 C4.12,15.88 5.1,15.9 5.1,15.9 C6.1,15.97 6.63,16.93 6.63,16.93 C7.5,18.45 8.97,18 9.54,17.76 C9.63,17.11 9.89,16.67 10.17,16.42 C7.95,16.17 5.62,15.31 5.62,11.5 C5.62,10.39 6.01,9.48 6.65,8.77 C6.55,8.52 6.2,7.5 6.75,6.15 C6.75,6.15 7.59,5.88 9.5,7.17 C10.29,6.95 11.15,6.84 12,6.84 C12.85,6.84 13.71,6.95 14.5,7.17 C16.41,5.88 17.25,6.15 17.25,6.15 C17.8,7.5 17.45,8.52 17.35,8.77 C17.99,9.48 18.38,10.39 18.38,11.5 C18.38,15.32 16.04,16.16 13.81,16.41 C14.17,16.72 14.5,17.33 14.5,18.26 C14.5,19.6 14.5,20.68 14.5,21 C14.5,21.27 14.66,21.59 15.17,21.5 C19.14,20.16 22,16.42 22,12 C22,6.48 17.52,2 12,2 Z" fill="#7B2FBE" transform="scale(0.85) translate(-2,-2)"/>
  </g>

  <!-- Bottom home bar -->
  <rect x="110" y="600" width="100" height="4" rx="2" fill="#ccc"/>
</svg>
