<svg viewBox="0 0 280 500" xmlns="http://www.w3.org/2000/svg">
  <defs>
    <linearGradient id="todoGrad" x1="0" y1="0" x2="0" y2="1">
      <stop offset="0%" stop-color="#7c3aed"/>
      <stop offset="100%" stop-color="#06b6d4"/>
    </linearGradient>
  </defs>

  <!-- App background with gradient -->
  <rect width="280" height="500" rx="16" fill="url(#todoGrad)"/>

  <!-- Status bar -->
  <text x="18" y="24" font-family="sans-serif" font-size="12" font-weight="bold" fill="rgba(255,255,255,0.85)">9:41</text>

  <!-- Title -->
  <text x="18" y="64" font-family="sans-serif" font-size="22" font-weight="bold" fill="#ffffff">Lista de Tarefas</text>

  <!-- Input row -->
  <rect x="18" y="76" width="190" height="42" rx="12" fill="rgba(255,255,255,0.18)" stroke="rgba(255,255,255,0.4)" stroke-width="1"/>
  <text x="30" y="101" font-family="sans-serif" font-size="13" fill="rgba(255,255,255,0.6)">Nova tarefa...</text>
  <rect x="216" y="76" width="46" height="42" rx="12" fill="#ffffff"/>
  <text x="239" y="101" font-family="sans-serif" font-size="13" font-weight="bold" fill="#7c3aed" text-anchor="middle">Add</text>

  <!-- Task 1 - pending -->
  <rect x="18" y="132" width="244" height="56" rx="14" fill="rgba(255,255,255,0.93)"/>
  <rect x="30" y="146" width="22" height="22" rx="11" fill="#e0f2fe" stroke="#0ea5e9" stroke-width="1.5"/>
  <text x="60" y="157" font-family="sans-serif" font-size="13" font-weight="bold" fill="#1a1a2e">Iniciar novo projeto</text>
  <text x="60" y="173" font-family="sans-serif" font-size="11" fill="#9ca3af">Hoje · Trabalho</text>
  <rect x="230" y="146" width="22" height="22" rx="6" fill="#fee2e2"/>
  <text x="241" y="162" font-family="sans-serif" font-size="16" fill="#ef4444" text-anchor="middle">×</text>

  <!-- Task 2 - done -->
  <rect x="18" y="198" width="244" height="56" rx="14" fill="rgba(255,255,255,0.93)"/>
  <rect x="30" y="212" width="22" height="22" rx="11" fill="#dcfce7" stroke="#22c55e" stroke-width="1.5"/>
  <text x="41" y="227" font-family="sans-serif" font-size="13" fill="#22c55e" text-anchor="middle">✓</text>
  <text x="60" y="223" font-family="sans-serif" font-size="13" font-weight="bold" fill="#9ca3af">Fazer compras</text>
  <text x="60" y="239" font-family="sans-serif" font-size="11" fill="#9ca3af">Concluído · Ontem</text>
  <rect x="230" y="212" width="22" height="22" rx="6" fill="#fee2e2"/>
  <text x="241" y="228" font-family="sans-serif" font-size="16" fill="#ef4444" text-anchor="middle">×</text>

  <!-- Task 3 - pending -->
  <rect x="18" y="264" width="244" height="56" rx="14" fill="rgba(255,255,255,0.93)"/>
  <rect x="30" y="278" width="22" height="22" rx="11" fill="#e0f2fe" stroke="#0ea5e9" stroke-width="1.5"/>
  <text x="60" y="289" font-family="sans-serif" font-size="13" font-weight="bold" fill="#1a1a2e">Estudar Kotlin</text>
  <text x="60" y="305" font-family="sans-serif" font-size="11" fill="#9ca3af">Amanhã · Pessoal</text>
  <rect x="230" y="278" width="22" height="22" rx="6" fill="#fee2e2"/>
  <text x="241" y="294" font-family="sans-serif" font-size="16" fill="#ef4444" text-anchor="middle">×</text>

  <!-- Task 4 - pending -->
  <rect x="18" y="330" width="244" height="56" rx="14" fill="rgba(255,255,255,0.93)"/>
  <rect x="30" y="344" width="22" height="22" rx="11" fill="#e0f2fe" stroke="#0ea5e9" stroke-width="1.5"/>
  <text x="60" y="355" font-family="sans-serif" font-size="13" font-weight="bold" fill="#1a1a2e">Portfolio pessoal</text>
  <text x="60" y="371" font-family="sans-serif" font-size="11" fill="#9ca3af">Esta semana · Dev</text>
  <rect x="230" y="344" width="22" height="22" rx="6" fill="#fee2e2"/>
  <text x="241" y="360" font-family="sans-serif" font-size="16" fill="#ef4444" text-anchor="middle">×</text>

  <!-- Counter -->
  <text x="140" y="418" font-family="sans-serif" font-size="12" fill="rgba(255,255,255,0.7)" text-anchor="middle">3 pendentes · 1 concluída</text>

  <!-- Home bar -->
  <rect x="100" y="486" width="80" height="4" rx="2" fill="rgba(255,255,255,0.35)"/>
</svg>
